<svg xmlns="http://www.w3.org/2000/svg" width="32" height="32" viewBox="0 0 32 32" fill="none">
  <g stroke-linecap="round" stroke-linejoin="round">
    <path
      d="M5.4 29.2V4.4H10.6L26.6 27.6V2.8H29.4V29.2H24.8L8.2 5.2V29.2H5.4Z"
      fill="#7A4A74"
      stroke="#DCC5D9"
      stroke-width="0.8"
    />
    <path
      d="M3.8 5.2H10.5"
      stroke="#DCC5D9"
      stroke-width="0.8"
    />
    <path
      d="M24 29.2H28.8"
      stroke="#DCC5D9"
      stroke-width="0.8"
    />
    <path
      d="M4.2 29.2H11.2"
      stroke="#DCC5D9"
      stroke-width="0.8"
    />
    <path
      d="M7.3 6.8C6.1 6.8 5.2 7.7 5.2 8.9C5.2 10 5.9 10.8 6.6 11.6C7.4 12.4 8 13.1 8 14.1C8 15.5 6.8 16.5 5.2 16.5"
      stroke="#7A4A74"
      stroke-width="1"
    />
    <path
      d="M7.3 6.8C8.5 6.8 9.4 7.7 9.4 8.9C9.4 10 8.7 10.8 8 11.6C7.2 12.4 6.6 13.1 6.6 14.1C6.6 15.5 7.8 16.5 9.4 16.5"
      stroke="#7A4A74"
      stroke-width="1"
    />
    <path
      d="M7.3 16.4C6 16.4 5 17.4 5 18.7C5 19.9 5.8 20.8 6.6 21.7C7.5 22.6 8.1 23.4 8.1 24.5C8.1 25.9 6.9 27 5.3 27"
      stroke="#7A4A74"
      stroke-width="1"
    />
    <path
      d="M7.3 16.4C8.6 16.4 9.6 17.4 9.6 18.7C9.6 19.9 8.8 20.8 8 21.7C7.1 22.6 6.5 23.4 6.5 24.5C6.5 25.9 7.7 27 9.3 27"
      stroke="#7A4A74"
      stroke-width="1"
    />
    <path
      d="M7.3 6.1V28.1"
      stroke="#7A4A74"
      stroke-width="0.95"
    />
    <path
      d="M10.9 30C12.8 30 13.7 28.9 13.7 26.9V20.6C13.7 18.8 14.6 17.8 16.1 17.8C18 17.8 18.9 19.2 18.9 21C18.9 22.7 18.1 23.8 16.7 24.3C18.2 24.6 19.5 25.9 19.5 27.5C19.5 29.1 18.2 30 16.3 30H14.3"
      stroke="#718700"
      stroke-width="1.1"
    />
    <circle cx="10.3" cy="28.8" r="0.95" fill="#718700" />
  </g>
</svg>
